<?xml version="1.0"?>
<svg xmlns:rdf="http://www.w3.org/1999/02/22-rdf-syntax-ns#" xmlns="http://www.w3.org/2000/svg" xmlns:cc="http://creativecommons.org/ns#" xmlns:dc="http://purl.org/dc/elements/1.1/" xmlns:svg="http://www.w3.org/2000/svg" id="svg3610" viewBox="0 0 329.69 929.21" version="1.0">
  <title id="title3635">Person Outline</title>
  <g id="layer1" transform="translate(-213.39 -39.412)">
    <path id="path3443" d="m490.9 500.68l-2.5 9.11-4.96 9.11s-1.6 3.21-2.82 5.63c-0.73 1.47-1.32 2.65-1.32 2.65l2.49-15.73s0.82 2.48 0.82-14.91 0.83-53 0.83-53l-3.31-26.5v-20.7l13.25 38.1 0.82 21.52s-3.3 44.72-3.3 44.72zm-207.47-38.44c-1.28 6.16-0.89 7.11-0.38 9.98 2.49 14.07-2.56 26.81-2.56 26.81v13.24l-4.98-4.96-1.64-9.94 0.81-24.84 2.23-35.99 5.75 20.33s2.05-0.75 0.77 5.37zm259.65-80.81l-4.14-35.6s-15.73-27.33-4.14-35.61c11.6-8.28 8.28-3.31 0.83-14.08-7.46-10.76-8.29-27.32-14.91-45.55-6.63-18.21-18.4-20.86-18.95-22.24-0.56-1.38-8.56-11.32-10.77-14.09-2.21-2.76-53.3-32.59-53.3-32.59s-6.63-1.1-9.95-2.21c-3.31-1.1-9.39-5.52-9.39-5.52s-1.1 0.83-6.35-1.1c-5.25-1.94-8.56-6.63-8.56-6.63s-0.83-21.55 0.28-25.41c1.1-3.86 2.48-10.77 5.24-11.32 2.76-0.56 3.04-8.84 4.15-14.92 1.1-6.07-1.39-8.56-2.49-8.56s-1.39-1.93-1.39-1.93-1.1-6.357 0.84-9.118c1.93-2.757 0.82-17.401 0.27-23.197-0.55-5.8-4.69-6.909-4.69-6.909l-4.97-7.453-9.11-8.285-5.53-4.419-5.53-3.593s-10.76-1.93-18.49-1.658c-7.74 0.281-19.61 9.116-27.63 16.574-8 7.454-7.73 19.332-7.73 19.332l-0.83 13.807s1.38 7.182 1.38 7.182l-4.48 12.667v11.59s5.8 0.83 5.8 0.83 2.48 9.1 2.48 9.1l6.62 16.57s-1.65 27.32-1.65 27.32l-8.28 1.66-6.63 4.97-13.25 9.94s-11.6 9.11-31.48 19.87c-19.88 10.77-29.83 25.67-37.28 49.69-7.46 24.01-25.68 42.23-25.68 42.23l9.11 5.79 11.6 11.6s4.14 44.71 0 54.65-1.66 32.29-1.66 63.76 8.28 37.26 8.28 37.26l4.98 46.39v33.12l4.97 21.53 18.22 13.25 13.26 10.76s8.28 84.46 10.76 136.63c2.49 52.18 19.06 123.39 19.06 123.39s-0.83 0.83-7.46 4.14 5.8 11.6 5.8 11.6 7.45 9.93 7.45 9.93-15.73 10.77-20.7 15.73c-4.97 4.97-4.15 8.29-4.15 8.29l4.97 4.13-11.59 13.26s-6.63 15.73-8.29 23.18c-1.65 7.45 11.6 16.57 28.17 17.4 16.57 0.82 25.67-6.63 33.96-10.77 8.28-4.14 9.11-19.05 9.11-19.05l2.49-16.56 13.25-5.79 9.94-7.46 2.49-13.25v-8.28l7.45-4.97 3.31-8.28-4.96-13.25s-4.15-48.03-4.15-48.03l-1.65-120.08 4.14-43.88 4.97-67.08 4.14 47.2 8.29 20.71 7.45 23.18s6.63 92.75 2.49 127.53c-4.15 34.78 5.8 56.31 5.8 56.31s2.48 4.97 2.48 4.97l1.65 9.93s4.15 9.11 4.15 9.11l12.42 10.77s-4.13 8.28-4.13 8.28l9.11 10.77 5.8 4.97 2.48 16.56 12.42 20.7s8.29 4.97 24.86 5.79c16.56 0.83 21.54-6.62 21.54-6.62l8.28-16.56-8.28-33.95-8.29-12.42-13.25-8.29 4.97-9.11v-18.21l-6.63-1.66 4.13-11.59 2.5-37.26s-6.63-25.68-3.31-33.13c3.31-7.45-1.66-67.07 0.81-92.74 2.5-25.68-10.76-72.87-10.76-72.87l42.25-27.33 19.05-33.96-2.48-11.59-5.8-24.02 9.11-73.69s3.31-52.18 3.31-52.18z" fill="#2e3436"/>
  </g>
  <metadata>
    <rdf:RDF>
      <cc:Work>
        <dc:format>image/svg+xml</dc:format>
        <dc:type rdf:resource="http://purl.org/dc/dcmitype/StillImage"/>
        <cc:license rdf:resource="http://creativecommons.org/licenses/publicdomain/"/>
        <dc:publisher>
          <cc:Agent rdf:about="http://openclipart.org/">
            <dc:title>Openclipart</dc:title>
          </cc:Agent>
        </dc:publisher>
        <dc:title>Person Outline 1</dc:title>
        <dc:date>2009-03-09T00:07:54</dc:date>
        <dc:description>This is a person used in http://fabricatorz.com pattern.</dc:description>
        <dc:source>http://openclipart.org/detail/21966/person-outline-1-by-rejon</dc:source>
        <dc:creator>
          <cc:Agent>
            <dc:title>rejon</dc:title>
          </cc:Agent>
        </dc:creator>
        <dc:subject>
          <rdf:Bag>
            <rdf:li>clip art</rdf:li>
            <rdf:li>clipart</rdf:li>
            <rdf:li>image</rdf:li>
            <rdf:li>media</rdf:li>
            <rdf:li>modern</rdf:li>
            <rdf:li>outline</rdf:li>
            <rdf:li>person</rdf:li>
            <rdf:li>png</rdf:li>
            <rdf:li>public domain</rdf:li>
            <rdf:li>silhouette</rdf:li>
            <rdf:li>svg</rdf:li>
          </rdf:Bag>
        </dc:subject>
      </cc:Work>
      <cc:License rdf:about="http://creativecommons.org/licenses/publicdomain/">
        <cc:permits rdf:resource="http://creativecommons.org/ns#Reproduction"/>
        <cc:permits rdf:resource="http://creativecommons.org/ns#Distribution"/>
        <cc:permits rdf:resource="http://creativecommons.org/ns#DerivativeWorks"/>
      </cc:License>
    </rdf:RDF>
  </metadata>
</svg>
